<svg xmlns="http://www.w3.org/2000/svg" xmlns:xlink="http://www.w3.org/1999/xlink" viewBox="0,0,256,256" width="75px" height="75px"><g fill="#ffffff" fill-rule="nonzero" stroke="none" stroke-width="1" stroke-linecap="butt" stroke-linejoin="miter" stroke-miterlimit="10" stroke-dasharray="" stroke-dashoffset="0" font-family="none" font-weight="none" font-size="none" text-anchor="none" style="mix-blend-mode: normal"><g transform="scale(5.12,5.12)"><path d="M17.72266,10c-7.162,0 -7.72266,0.56066 -7.72266,7.72266v14.55469c0,7.162 0.56066,7.72266 7.72266,7.72266h14.55469c7.162,0 7.72266,-0.56066 7.72266,-7.72266v-14.50781c0,-7.206 -0.56353,-7.76953 -7.76953,-7.76953zM17.61133,13h1.26367l1.26367,3.69727l1.26172,-3.69727h1.26367l-1.89453,5.54688v3.69531h-1.26172v-3.69531zM27.7168,15.46484h1.26172v4.92969c0,0.59 0.50181,0.61719 0.63281,0.61719c0.116,0 0.62386,-0.19619 0.63086,-0.61719v-4.92969h1.26367v6.77734h-1.26367v-0.61523c-0.278,0.3 -0.61967,0.61523 -1.26367,0.61523c-0.644,0 -1.26172,-0.63147 -1.26172,-1.23047zM24.55859,15.4668c0.613,0 1.01806,0.08836 1.41406,0.44336c0.381,0.343 0.48047,0.8603 0.48047,1.4043v3.08203c0,0.615 -0.07861,1.03295 -0.47461,1.37695c-0.379,0.358 -0.74692,0.4707 -1.41992,0.4707c-0.643,0 -1.01711,-0.1137 -1.41211,-0.4707c-0.381,-0.36 -0.48242,-0.76491 -0.48242,-1.37891v-3.08008c-0.026,-0.84 0.08352,-1.09097 0.47852,-1.41797c0.411,-0.329 0.74202,-0.43069 1.41602,-0.42969zM24.55859,16.69727c-0.358,0 -0.63086,0.11519 -0.63086,0.61719v3.08008c0,0.608 0.44186,0.61719 0.63086,0.61719c0.204,0 0.63181,-0.02119 0.63281,-0.61719v-3.08008c0,-0.617 -0.44281,-0.61719 -0.63281,-0.61719zM15.60742,25.01563h18.79883c0.694,0 1.36156,0.27463 1.85156,0.76563c0.49,0.491 0.76563,1.15756 0.76563,1.85156v6.7832c0,0.694 -0.27563,1.35861 -0.76563,1.84961c-0.491,0.49 -1.15756,0.76563 -1.85156,0.76563h-18.79883c-0.694,0 -1.35861,-0.27463 -1.84961,-0.76562c-0.49,-0.491 -0.76758,-1.15561 -0.76758,-1.84961v-6.7832c0,-0.694 0.27658,-1.36056 0.76758,-1.85156c0.491,-0.49 1.15561,-0.76562 1.84961,-0.76562zM16.22461,26.41406v1.25391h1.25195v7.51563h1.25391v-7.51562h1.25195v-1.25391zM25.61914,26.41602v8.76758h1.25195v-0.625c0.242,0.282 0.59591,0.632 1.25391,0.625c0.39,-0.004 0.69158,-0.31845 0.89258,-0.56445c0.204,-0.249 0.36133,-0.53795 0.36133,-1.00195v-3.75781c0,-0.54 -0.17163,-0.90564 -0.39062,-1.18164c-0.217,-0.276 -0.53736,-0.41992 -0.94336,-0.41992c-0.203,0 -0.40542,0.05616 -0.60742,0.16016c-0.204,0.101 -0.42045,0.27891 -0.56445,0.50391v-2.50586zM23.11523,28.29492v5.00977c-0.114,0.146 -0.11895,0.62191 -0.62695,0.62891c-0.458,0.005 -0.625,-0.48295 -0.625,-0.62695v-5.00977h-1.25391v5.63672c0,0.391 0.16945,0.58348 0.31445,0.77148c0.161,0.205 0.50559,0.48047 0.80859,0.48047c0.246,0 0.50853,0.00928 0.76953,-0.13672c0.26,-0.131 0.38128,-0.21623 0.61328,-0.49023v0.625h1.25195v-6.88867zM32.00586,28.29492c-0.594,0 -1.14355,0.14441 -1.43555,0.44141c-0.365,0.375 -0.56445,0.79533 -0.56445,1.36133v2.94922c0,0.641 0.17386,1.13505 0.50586,1.49805c0.335,0.362 0.79853,0.53711 1.39453,0.53711c0.65,0 1.14684,-0.16076 1.46484,-0.50977c0.336,-0.334 0.39063,-0.84139 0.39063,-1.52539v-0.37109h-1.25195v0.3125c0,0.378 -0.037,0.66848 -0.125,0.77148c-0.087,0.116 -0.24795,0.16692 -0.50195,0.16992c-0.23,0.003 -0.40619,-0.06108 -0.49219,-0.20508c-0.088,-0.131 -0.13477,-0.35608 -0.13477,-0.70508v-0.96875h2.50586v-1.95117c0,-0.625 -0.10378,-1.0117 -0.42578,-1.3457c-0.316,-0.334 -0.73408,-0.45898 -1.33008,-0.45898zM27.49805,29.23438c0.345,0 0.62695,0.31245 0.62695,0.93945v3.14453c0,0.346 -0.28195,0.61328 -0.62695,0.61328c-0.345,0 -0.619,-0.13445 -0.625,-0.31445v-3.75781c0.005,-0.315 0.28,-0.625 0.625,-0.625zM31.88281,29.54688c0.346,0 0.62695,0.24195 0.62695,0.62695v0.625h-1.25195v-0.625c0.005,-0.336 0.279,-0.62695 0.625,-0.62695z"></path></g></g></svg>