<?xml version="1.0" standalone="no"?>
<!DOCTYPE svg PUBLIC "-//W3C//DTD SVG 20010904//EN"
 "http://www.w3.org/TR/2001/REC-SVG-20010904/DTD/svg10.dtd">
<svg version="1.0" xmlns="http://www.w3.org/2000/svg"
 width="500.000000pt" height="500.000000pt" viewBox="0 0 500.000000 500.000000"
 preserveAspectRatio="xMidYMid meet">

<g transform="translate(0.000000,500.000000) scale(0.100000,-0.100000)"
fill="#000000" stroke="none">
<path d="M0 2500 l0 -2500 2500 0 2500 0 0 2500 0 2500 -2500 0 -2500 0 0
-2500z m2705 1608 c3 -7 -91 -260 -208 -563 -179 -459 -217 -550 -233 -550
-11 0 -18 7 -18 15 1 8 97 261 214 563 202 519 229 577 245 535z m-497 -225
c-7 -9 -101 -85 -210 -170 -109 -85 -198 -156 -198 -157 0 -2 89 -73 198 -159
225 -176 228 -179 208 -196 -11 -9 -59 24 -237 164 -123 96 -224 182 -224 190
0 8 101 94 224 190 179 141 226 173 237 164 11 -9 12 -15 2 -26z m810 -157
c111 -87 202 -164 202 -171 0 -13 -1 -14 -263 -218 -104 -81 -193 -145 -198
-142 -24 16 6 46 196 195 113 89 205 163 205 165 0 2 -92 76 -205 165 -190
149 -217 175 -198 193 9 10 36 -10 261 -187z m-2063 -1096 c33 -11 71 -29 84
-39 l23 -18 -32 -62 c-30 -61 -32 -62 -54 -48 -37 25 -126 47 -187 47 -115 0
-207 -57 -261 -160 -34 -66 -33 -195 2 -263 33 -65 95 -120 160 -142 68 -23
184 -16 253 14 27 12 52 21 56 21 7 0 61 -109 61 -123 0 -8 -122 -56 -170 -67
-135 -29 -310 11 -409 96 -176 149 -187 479 -21 645 118 118 323 159 495 99z
m718 15 c88 -18 156 -56 216 -120 57 -60 85 -111 106 -192 39 -150 0 -306
-106 -418 -170 -180 -481 -178 -652 3 -102 110 -141 267 -102 415 21 81 49
132 106 192 107 113 262 156 432 120z m2745 5 c67 -11 157 -41 187 -64 18 -13
17 -16 -10 -78 l-28 -65 -47 23 c-179 90 -385 41 -450 -108 -33 -76 -34 -202
-1 -276 46 -103 149 -158 280 -150 36 2 83 12 104 21 l37 16 0 80 0 81 -85 0
-85 0 0 65 0 65 160 0 160 0 0 -201 0 -200 -54 -24 c-64 -28 -187 -55 -254
-55 -279 0 -464 190 -450 464 10 191 106 327 271 384 98 33 160 39 265 22z
m-1858 -33 c109 -42 196 -132 227 -236 12 -37 18 -91 18 -161 0 -156 -35 -245
-130 -328 -87 -77 -200 -102 -457 -102 l-138 0 0 426 0 426 218 -4 c174 -3
226 -8 262 -21z m480 -402 l0 -425 -80 0 -80 0 0 425 0 425 80 0 80 0 0 -425z
m425 148 c71 -153 137 -297 147 -320 10 -23 23 -45 28 -48 6 -4 10 111 10 319
l0 326 80 0 80 0 0 -425 0 -426 -111 3 -111 3 -148 325 c-82 179 -154 326
-160 328 -7 3 -10 -103 -10 -327 l0 -331 -75 0 -75 0 0 425 0 425 109 0 108 0
128 -277z m-1141 -960 c117 -81 115 -265 -3 -348 -38 -27 -50 -30 -119 -30
-70 0 -81 3 -124 32 -117 82 -119 265 -2 345 49 34 64 37 143 33 50 -2 72 -9
105 -32z m432 18 c162 -74 157 -316 -8 -386 -105 -43 -231 6 -279 110 -35 75
-16 179 42 235 61 58 167 76 245 41z m-866 -6 c71 -37 79 -135 16 -193 -20
-18 -36 -35 -36 -38 0 -4 20 -39 45 -78 25 -40 45 -76 45 -79 0 -4 -15 -7 -34
-7 -33 0 -37 4 -83 85 l-48 85 -47 0 -48 0 0 -85 0 -85 -35 0 -35 0 0 205 0
205 115 0 c84 0 124 -4 145 -15z m1172 -100 c52 -197 59 -220 67 -205 5 8 25
84 47 168 l39 152 57 0 58 0 0 -205 0 -205 -35 0 -35 0 0 167 c0 108 -3 164
-10 157 -7 -7 -90 -301 -90 -320 0 -2 -15 -4 -34 -4 -39 0 -38 -3 -81 170 -14
58 -29 118 -33 133 -4 16 -11 29 -17 30 -6 1 -11 -61 -13 -165 l-2 -168 -30 0
-30 0 0 205 0 206 57 -3 56 -3 29 -110z"/>
<path d="M1465 2490 c-71 -28 -119 -71 -152 -138 -23 -47 -28 -70 -28 -132 0
-122 51 -205 159 -263 58 -31 184 -31 242 0 66 35 101 70 131 131 40 81 40
183 0 264 -64 130 -217 190 -352 138z"/>
<path d="M2240 2215 l0 -278 98 6 c112 7 156 18 203 50 73 49 104 128 97 252
-6 115 -42 176 -128 221 -26 14 -64 19 -152 22 l-118 4 0 -277z"/>
<path d="M2126 1350 c-62 -40 -82 -120 -47 -188 24 -47 67 -72 123 -72 106 0
167 102 124 205 -29 69 -135 98 -200 55z"/>
<path d="M2575 1339 c-21 -18 -39 -46 -45 -70 -24 -89 39 -179 126 -179 86 0
144 55 144 138 0 86 -56 142 -142 142 -39 0 -54 -6 -83 -31z"/>
<path d="M1702 1308 l3 -63 67 1 c81 1 100 13 96 63 -4 45 -32 61 -111 61
l-58 0 3 -62z"/>
</g>
</svg>
